<svg version="1.0" xmlns="http://www.w3.org/2000/svg" width="933.333" height="933.333" viewBox="0 0 700 700">
    <path d="M0 350v350h700V0H0v350zm565-47v146h-41.8l-1.2-10c-.7-5.5-1.6-10-2-10-.3 0-2.6 2-5 4.5-14.3 14.5-34.9 21.3-62 20.2-15.6-.6-22.3-2.2-33.7-7.8-18.9-9.2-31-26.7-36.2-52.6-4.2-20.7-5.2-56-2.1-77.7 3.5-24.1 13.9-44.9 28.9-57.2 25.3-20.9 68.9-23.9 100.8-7l6.3 3.4V157h48v146zm-299.5-60c18 3.1 42.6 11.4 52.1 17.6l2.5 1.7-.4 96.6c-.4 84.6-.6 97.7-2.1 105.1-8.5 43.7-31.5 68.3-72.1 77.2-4 .9-13.5 1.3-28.5 1.3-28.4-.1-44.2-2.1-65.5-8.6-5.5-1.7-10.2-3.2-10.3-3.4-.2-.2 1.3-8.3 3.4-18 3.8-17.6 3.8-17.7 6.4-17.2 1.4.3 7.5 1.7 13.5 3.1 17.4 4.1 34.8 5.9 51.5 5.3 26.3-.9 39.4-7.8 47.5-25 5.5-11.6 6.7-17.5 7.2-35.7l.5-16.5-4.1 3.8c-11.1 10-25.4 15.9-43.5 17.7-30.3 3.1-56.3-5.9-70.3-24.4-13.1-17.3-18.3-39.5-18.3-77.9.1-29.7 2.4-43.5 10-59.4 13.1-27.2 37.5-41.7 76.5-45.7 8-.8 33.3.6 44 2.4z"/>
    <path d="M465 278.6c-19.3 3.7-29 13.5-34.2 34.1-2 8-2.2 11.2-2.2 34.8.1 28.6 1.1 36.5 6 47.5 3.5 7.8 11 15 18.9 17.9 11.7 4.4 31.1 3.7 42-1.4 6.5-3.1 12.9-9.9 16.1-17.1 4.7-10.6 5.4-19.1 5.4-64.4v-41.7l-6.8-3.1c-11.8-5.2-16.8-6.4-30.2-6.7-6.9-.2-13.6-.1-15 .1zM217.4 279.4c-16.6 3.8-26.1 13.2-31.1 30.7-1.5 5.5-1.8 10.3-1.8 34.4 0 30.6.6 35.6 5.6 46.2 3.6 7.5 10 13.4 17.8 16.3 10.8 4.1 30.3 3.6 40.8-1 6-2.6 13.1-9.6 16.3-16.1 5.5-10.8 6.1-17 5.8-62.9l-.3-41.5-3.8-1.8c-7.4-3.5-15.1-4.9-29.2-5.3-9.7-.2-15.9.1-20.1 1z"/>
</svg>
