<svg width="57" height="56" viewBox="0 0 57 56" fill="none" xmlns="http://www.w3.org/2000/svg">
    <g clip-path="url(#a)">
        <path d="M56.5 28c0 15.464-12.536 28-28 28-15.462 0-28-12.536-28-28 0-15.462 12.538-28 28-28 15.464 0 28 12.538 28 28Z" fill="#A5B4FC"/>
        <path d="M19.438 28.647c2.274 0 4.117-2.581 4.117-5.765 0-3.184-1.843-5.765-4.117-5.765s-4.118 2.581-4.118 5.765c0 3.184 1.844 5.765 4.118 5.765Z" fill="#312E81"/>
        <path d="M39.205 32.94c5.913 0 10.706-4.792 10.706-10.704 0-5.913-4.793-10.706-10.706-10.706-5.912 0-10.705 4.793-10.705 10.706 0 5.912 4.793 10.705 10.705 10.705Z" fill="#E0E7FF"/>
        <path d="M23.562 15.472c-.5 0-.995-.227-1.319-.658-1.541-2.055-3.154-3.156-4.796-3.273-2.162-.148-3.924 1.473-4.252 1.801a1.645 1.645 0 0 1-2.33 0 1.645 1.645 0 0 1 0-2.328c.712-.711 3.313-3.012 6.816-2.758 2.636.186 5.057 1.728 7.197 4.58a1.647 1.647 0 0 1-1.316 2.636ZM51.57 56c-.91 0-1.648-.737-1.648-1.647V23.059a1.647 1.647 0 1 1 3.295 0v31.295A1.648 1.648 0 0 1 51.569 56Z" fill="#312E81"/>
        <path d="M51.566 19.765c-.084 0-.163.019-.245.025-1.14-5.643-6.134-9.907-12.109-9.907-6.812 0-12.353 5.54-12.353 12.352S32.4 34.588 39.212 34.588c5.395 0 9.98-3.481 11.66-8.311a3.294 3.294 0 1 0 .694-6.512Zm-12.354 11.53c-4.995 0-9.058-4.063-9.058-9.06 0-4.996 4.065-9.06 9.058-9.06 4.995 0 9.06 4.064 9.06 9.06 0 4.997-4.065 9.06-9.06 9.06ZM33.429 44.47c-.248 0-.5-.056-.736-.174-2.83-1.416-5.58-1.416-8.41 0a1.647 1.647 0 1 1-1.473-2.948c3.767-1.882 7.587-1.882 11.356 0a1.649 1.649 0 0 1-.737 3.122Z" fill="#312E81"/>
        <path d="M44.127 14.639a9.004 9.004 0 0 0-4.927-1.462 9.06 9.06 0 0 0-9.06 9.06c0 1.818.542 3.507 1.463 4.926l12.524-12.524Zm-8.792 15.78a9.013 9.013 0 0 0 3.865.875 9.06 9.06 0 0 0 9.06-9.06c0-1.384-.32-2.692-.876-3.865l-12.05 12.05Z" fill="#EEF2FF"/>
    </g>
    <defs>
        <clipPath id="a">
            <path fill="#fff" transform="translate(.5)" d="M0 0h56v56H0z"/>
        </clipPath>
    </defs>
</svg>
