<svg width="71" height="60" viewBox="0 0 71 60" fill="none" xmlns="http://www.w3.org/2000/svg">
    <g clip-path="url(#a)">
        <path d="M34.51 15.979a2.928 2.928 0 0 0-.599-1.132c-2.146-3.406-7.464-1.69-15.18.183-1.29.314-.962-1.397-1.402-4.84-.287-2.24-2.57-5.185-4.912-4.557-3.862 1.035.67 3.086-.726 11.534-.746 4.514-5.429 3.352-4.345 7.395l2.466 9.204c.421 1.573.981 3.045 3.261 2.7 2.21-.333 2.138 1.325 5.233.496L33.8 32.811a2.966 2.966 0 0 0 2.094-3.63 2.936 2.936 0 0 0-1.063-1.572 2.955 2.955 0 0 0 .81-2.884 2.934 2.934 0 0 0-1.061-1.57 2.953 2.953 0 0 0 .813-2.888 2.953 2.953 0 0 0-1.362-1.784c.51-.7.72-1.606.48-2.504Z" fill="#A5B4FC"/>
        <path d="m25.02 21.587 7.387-1.98a2.977 2.977 0 0 0 2.085-2.06.778.778 0 0 0-1.499-.42c-.132.476-.513.85-.99.978l-7.564 2.027c-.75.2-1.523-.245-1.724-.995-.2-.75.246-1.522.995-1.723l5.055-1.355a.778.778 0 0 0-.403-1.502l-5.055 1.354a2.966 2.966 0 0 0-2.095 3.629c.236.88.852 1.55 1.62 1.907a2.952 2.952 0 0 0-.311 2.267 2.943 2.943 0 0 0 1.627 1.91 2.95 2.95 0 0 0 1.529 4.265 2.938 2.938 0 0 0-.225 2.088 2.966 2.966 0 0 0 3.629 2.095l4.708-1.261a2.977 2.977 0 0 0 2.086-2.061.778.778 0 0 0-1.497-.422 1.417 1.417 0 0 1-.992.98l-4.708 1.262c-.75.2-1.523-.246-1.723-.995-.201-.75.245-1.523.995-1.723l5.586-1.497a2.977 2.977 0 0 0 2.085-2.062.777.777 0 1 0-1.497-.421c-.136.484-.507.85-.991.98l-6.064 1.625a1.409 1.409 0 0 1-.729-2.72l6.947-1.86a2.977 2.977 0 0 0 2.086-2.061.778.778 0 0 0-1.497-.422c-.136.484-.507.85-.991.98l-7.137 1.912a1.408 1.408 0 0 1-.729-2.719Z" fill="#312E81"/>
    </g>
    <g clip-path="url(#b)">
        <path d="M65.58 44.024c-.116.432-.327.81-.599 1.132-2.146 3.405-7.464 1.69-15.18-.184-1.29-.313-.962 1.397-1.402 4.84-.287 2.24-2.57 5.185-4.912 4.558-3.861-1.035.67-3.086-.726-11.534-.746-4.514-5.429-3.353-4.345-7.396l2.466-9.202c.421-1.574.981-3.045 3.261-2.701 2.21.332 2.138-1.326 5.233-.497l15.493 4.152a2.966 2.966 0 0 1 2.094 3.629 2.936 2.936 0 0 1-1.063 1.572 2.955 2.955 0 0 1 .81 2.885 2.935 2.935 0 0 1-1.061 1.57 2.953 2.953 0 0 1 .813 2.887A2.953 2.953 0 0 1 65.1 41.52c.51.699.72 1.606.48 2.504Z" fill="#A5B4FC"/>
        <path d="m56.084 38.415 7.388 1.98a2.977 2.977 0 0 1 2.085 2.06.778.778 0 0 1-1.499.42 1.411 1.411 0 0 0-.99-.978l-7.564-2.027c-.75-.2-1.523.245-1.723.995-.201.75.245 1.523.995 1.723l5.054 1.355a.778.778 0 0 1-.402 1.502l-5.056-1.354a2.966 2.966 0 0 1-2.095-3.629c.236-.88.853-1.55 1.62-1.907a2.952 2.952 0 0 1-.31-2.267 2.943 2.943 0 0 1 1.626-1.91 2.95 2.95 0 0 1 1.529-4.265 2.939 2.939 0 0 1-.225-2.088 2.966 2.966 0 0 1 3.629-2.095l4.708 1.261a2.977 2.977 0 0 1 2.087 2.061.778.778 0 0 1-1.498.422 1.417 1.417 0 0 0-.991-.98l-4.709-1.262c-.75-.2-1.522.246-1.723.995-.201.75.245 1.523.995 1.724l5.586 1.496a2.977 2.977 0 0 1 2.086 2.062.777.777 0 1 1-1.497.422 1.397 1.397 0 0 0-.992-.981l-6.064-1.625a1.408 1.408 0 0 0-.729 2.72l6.947 1.86a2.977 2.977 0 0 1 2.086 2.061.778.778 0 0 1-1.497.422 1.398 1.398 0 0 0-.991-.98l-7.137-1.912a1.409 1.409 0 0 0-.729 2.719Z" fill="#312E81"/>
    </g>
    <defs>
        <clipPath id="a">
            <path fill="#fff" transform="rotate(-15 32.992 2.925)" d="M0 0h32v32H0z"/>
        </clipPath>
        <clipPath id="b">
            <path fill="#fff" transform="rotate(15 -57.819 161.074)" d="M0 0h32v32H0z"/>
        </clipPath>
    </defs>
</svg>
