<svg width="1000" height="1000" viewBox="0 0 264.583 264.583" xmlns:xlink="http://www.w3.org/1999/xlink" xmlns="http://www.w3.org/2000/svg">
    <defs>
        <linearGradient id="a">
            <stop style="stop-color:#3254ff;stop-opacity:1" offset="0"/>
            <stop style="stop-color:#d732ff;stop-opacity:1" offset="1"/>
        </linearGradient>
        <linearGradient xlink:href="#a" id="b" x1="78.025" y1="21.058" x2="93.14" y2="243.179" gradientUnits="userSpaceOnUse" gradientTransform="matrix(1 0 0 1.08266 60.07 -9.06)"/>
    </defs>
    <path style="fill:url(#b);fill-opacity:1;fill-rule:evenodd;stroke-width:13.2292;stroke-linecap:square;stroke-linejoin:bevel" d="M257.021 115.61c-1.4 83.57-94.187 142.335-94.187 142.335s.087-37.847-31.66-46.96C80.702 196.497 7.214 166.149 7.214 110.84c0-55.308 55.499-100.144 123.96-100.144 68.46 0 126.842 45.508 125.847 104.913z" transform="translate(.168 -.141)"/>
    <path style="fill:#fff;fill-rule:evenodd;stroke-width:13.2292;stroke-linecap:square;stroke-linejoin:bevel" d="M194.066 198.119a9.753 9.753 0 0 1-9.753 9.753 9.753 9.753 0 0 1-9.754-9.753 9.753 9.753 0 0 1 9.754-9.753 9.753 9.753 0 0 1 9.753 9.753zM88.181 148.614a12.27 12.27 0 0 1-12.27 12.27 12.27 12.27 0 0 1-12.27-12.27 12.27 12.27 0 0 1 12.27-12.27 12.27 12.27 0 0 1 12.27 12.27ZM97.806 46.362a6.607 6.607 0 0 1-6.607 6.607 6.607 6.607 0 0 1-6.607-6.607 6.607 6.607 0 0 1 6.607-6.607 6.607 6.607 0 0 1 6.607 6.607z" transform="translate(.168 -.141)"/>
    <path style="color:#000;fill:#fff;fill-rule:evenodd;stroke-linecap:square;stroke-linejoin:bevel;-inkscape-stroke:none" d="M186.005 136.954c-6.469 0-11.77 5.3-11.77 11.77 0 6.469 5.301 11.77 11.77 11.77 6.469 0 11.77-5.301 11.77-11.77 0-6.47-5.301-11.77-11.77-11.77zm0 5.291a6.44 6.44 0 0 1 6.478 6.479 6.44 6.44 0 0 1-6.478 6.478 6.44 6.44 0 0 1-6.479-6.478 6.44 6.44 0 0 1 6.479-6.479zM129.679 85.044c-7.88 0-14.35 6.472-14.35 14.351 0 7.88 6.47 14.352 14.35 14.352 7.878 0 14.351-6.473 14.351-14.352 0-7.879-6.473-14.351-14.351-14.351zm0 7.937c3.589 0 6.414 2.825 6.414 6.414 0 3.59-2.825 6.414-6.414 6.414-3.59 0-6.413-2.824-6.413-6.414 0-3.589 2.823-6.414 6.413-6.414zM158.68 43.967c-5.417 0-9.85 4.433-9.85 9.85 0 5.416 4.433 9.85 9.85 9.85 5.416 0 9.85-4.434 9.85-9.85 0-5.417-4.434-9.85-9.85-9.85zm0 3.969a5.85 5.85 0 0 1 5.88 5.88 5.85 5.85 0 0 1-5.88 5.881 5.85 5.85 0 0 1-5.881-5.88 5.85 5.85 0 0 1 5.88-5.881z" transform="translate(.168 -.141)"/>
    <path style="color:#000;fill:#fff;stroke-width:3.96874;stroke-linecap:round;stroke-linejoin:round;-inkscape-stroke:none" d="M134.505 134.835a1.989 1.98 2.788 0 0-1.891 1.12l-21.102 43.771a1.988 1.98 2.788 0 0 .933 2.642 1.988 1.98 2.788 0 0 2.652-.928l6.843-14.194a1.988 1.98 2.788 0 0 .542.107l20.826 1.014a1.988 1.98 2.788 0 0 .549-.054l5.432 14.792a1.988 1.98 2.788 0 0 2.552 1.182 1.988 1.98 2.788 0 0 1.184-2.54l-16.75-45.615a1.989 1.98 2.788 0 0-1.77-1.297zm-.347 7.07 8.246 22.454-18.634-.908z" transform="translate(.168 -.141)"/>
    <path style="color:#000;fill:#fff;stroke-linecap:round;stroke-linejoin:round;-inkscape-stroke:none" d="M37.81 114.474a1.984 1.984 0 0 0 .39-.012l37.517-4.9a1.984 1.984 0 0 0 1.71-2.225 1.984 1.984 0 0 0-2.224-1.71l-16.792 2.192-5.072-38.842a1.984 1.984 0 0 0-2.225-1.71 1.984 1.984 0 0 0-1.71 2.224l5.073 38.842-16.792 2.193a1.984 1.984 0 0 0-1.71 2.225 1.984 1.984 0 0 0 1.835 1.723zM214.628 118.778a1.985 1.985 0 0 0 1.8-1.611l8.074-42.85A1.985 1.985 0 0 0 222.919 72l-27.406-5.164a1.984 1.984 0 0 0-2.318 1.583 1.984 1.984 0 0 0 1.583 2.317l25.456 4.796-3.498 18.566-25.456-4.796a1.984 1.984 0 0 0-2.318 1.582 1.984 1.984 0 0 0 1.583 2.318L216 98l-3.106 16.483-25.456-4.797a1.984 1.984 0 0 0-2.318 1.583 1.984 1.984 0 0 0 1.583 2.317l27.406 5.164a1.985 1.985 0 0 0 .518.03z" transform="translate(.168 -.141)"/>
</svg>
